<svg width="20" height="20" viewBox="0 0 20 20" fill="none" xmlns="http://www.w3.org/2000/svg">
<path d="M8.36459 4.43006L8.90542 5.39917C9.3935 6.27374 9.19759 7.42102 8.42884 8.18975C8.42884 8.18975 7.49649 9.12225 9.187 10.8128C10.877 12.5028 11.8101 11.571 11.8101 11.571C12.5788 10.8023 13.7261 10.6063 14.6007 11.0944L15.5698 11.6353C16.8904 12.3723 17.0463 14.2243 15.8856 15.3851C15.1881 16.0826 14.3336 16.6253 13.389 16.6611C11.7989 16.7214 9.0985 16.319 6.38967 13.6102C3.68086 10.9013 3.27843 8.20094 3.33871 6.61083C3.37452 5.66625 3.91725 4.81178 4.61476 4.11428C5.77555 2.95349 7.62756 3.10945 8.36459 4.43006Z" fill="#ffffff"/>
</svg>
