<svg width="21" height="20" viewBox="0 0 21 20" fill="none" xmlns="http://www.w3.org/2000/svg">
<path fill-rule="evenodd" clip-rule="evenodd" d="M9.89455 18.4207L9.89277 18.4194L9.88834 18.4159L9.87269 18.4036C9.85927 18.3929 9.83991 18.3777 9.81498 18.3577C9.76527 18.3179 9.69334 18.2598 9.60248 18.1848C9.42084 18.0349 9.16305 17.8171 8.8544 17.5428C8.23814 16.995 7.41433 16.2172 6.5882 15.2993C5.76414 14.3836 4.92407 13.3135 4.28674 12.1805C3.65314 11.0541 3.19055 9.81374 3.19055 8.57137C3.19055 6.67696 3.9431 4.86013 5.28264 3.52057C6.62219 2.18102 8.43901 1.42847 10.3334 1.42847C12.2278 1.42847 14.0446 2.18102 15.3842 3.52057C16.7237 4.86013 17.4763 6.67696 17.4763 8.57137C17.4763 9.81374 17.0137 11.0541 16.3801 12.1805C15.7428 13.3135 14.9027 14.3836 14.0786 15.2993C13.2525 16.2172 12.4287 16.995 11.8124 17.5428C11.5038 17.8171 11.246 18.0349 11.0643 18.1848C10.9735 18.2598 10.9016 18.3179 10.8518 18.3577C10.8269 18.3777 10.8076 18.3929 10.7941 18.4036L10.7785 18.4159L10.7741 18.4194L10.7727 18.4204C10.7727 18.4204 10.7719 18.421 10.3334 17.8571L10.7719 18.421C10.514 18.6216 10.1525 18.6214 9.89455 18.4207ZM10.3334 17.8571L9.89455 18.4207C9.89455 18.4207 9.89491 18.421 10.3334 17.8571ZM12.4763 8.57137C12.4763 9.75488 11.5169 10.7142 10.3334 10.7142C9.14991 10.7142 8.19055 9.75488 8.19055 8.57137C8.19055 7.3879 9.14991 6.4285 10.3334 6.4285C11.5169 6.4285 12.4763 7.3879 12.4763 8.57137Z" fill="white"/>
</svg>
